<?xml version="1.0"?><svg width="640" height="480" xmlns="http://www.w3.org/2000/svg">
 <title>shrinkies cloud</title>
 <g>
  <title>Layer 1</title>
  <g id="layer1">
   <path fill="#000000" stroke="#000000" stroke-width="14.790461" stroke-linejoin="round" stroke-miterlimit="4" stroke-dashoffset="0" id="path4952" d="m410.679596,194.3815c-18.304443,-4.904694 -36.82843,0.708252 -49.616486,12.902008c-6.681213,-8.030792 -15.727966,-14.228928 -26.579163,-17.136307c-27.926697,-7.482788 -56.696167,9.127151 -64.179138,37.053909c-0.549866,2.052063 -0.694641,4.115631 -0.989532,6.168045c-25.149353,-2.614288 -49.213318,13.129868 -55.96463,38.32637c-6.689621,24.965973 5.934036,50.494476 28.623032,60.990814c-1.233322,2.674438 -2.38327,5.429688 -3.171097,8.369537c-7.482864,27.926758 9.143707,56.63443 37.070465,64.117218c13.678589,3.66568 27.501953,1.513214 38.976959,-4.876282c6.324219,13.52948 18.115356,24.41864 33.659058,28.583282c22.17749,5.942566 44.682037,-3.470947 56.831757,-21.513611c4.921539,3.484131 10.392029,6.36615 16.55426,8.017609c27.926697,7.482788 56.634277,-9.144043 64.117279,-37.070801c3.762848,-14.042999 1.434509,-28.254333 -5.358032,-39.901459c6.722412,-6.410095 11.984406,-14.529816 14.562592,-24.151886c7.482971,-27.927094 -9.143646,-56.634766 -37.070343,-64.117569c-2.939789,-0.787354 -5.884552,-1.230911 -8.81662,-1.500015c1.737793,-24.524094 -14.023895,-47.662125 -38.65036,-54.260864z"/>
  </g>
  <text transform="matrix(1.36142, 0, 0, 2.93336, -73.1199, -555.097)" font-weight="bold" xml:space="preserve" text-anchor="middle" font-family="Comic Sans MS" font-size="24" id="svg_1" y="301.637812" x="318.90552" stroke-width="0" stroke="#000000" fill="#007fff">About Me</text>
 </g>
</svg>